<?xml version="1.0" encoding="UTF-8" standalone="no"?>
<!-- Created with Inkscape (http://www.inkscape.org/) -->

<svg
   width="161.847mm"
   height="77.767181mm"
   viewBox="0 0 161.847 77.767181"
   version="1.1"
   id="svg1"
   inkscape:version="1.4.2 (ebf0e940d0, 2025-05-08)"
   sodipodi:docname="logo-uspceu-gris.svg"
   inkscape:export-filename="/home/alf/logo-ceu-gris.png"
   inkscape:export-xdpi="96"
   inkscape:export-ydpi="96"
   xmlns:inkscape="http://www.inkscape.org/namespaces/inkscape"
   xmlns:sodipodi="http://sodipodi.sourceforge.net/DTD/sodipodi-0.dtd"
   xmlns="http://www.w3.org/2000/svg"
   xmlns:svg="http://www.w3.org/2000/svg">
  <sodipodi:namedview
     id="namedview1"
     pagecolor="#ffffff"
     bordercolor="#000000"
     borderopacity="0.25"
     inkscape:showpageshadow="2"
     inkscape:pageopacity="0.0"
     inkscape:pagecheckerboard="0"
     inkscape:deskcolor="#d1d1d1"
     inkscape:document-units="mm"
     inkscape:zoom="0.8979798"
     inkscape:cx="469.94376"
     inkscape:cy="99.668166"
     inkscape:window-width="3440"
     inkscape:window-height="1440"
     inkscape:window-x="0"
     inkscape:window-y="0"
     inkscape:window-maximized="0"
     inkscape:current-layer="layer1" />
  <defs
     id="defs1">
    <clipPath
       clipPathUnits="userSpaceOnUse"
       id="clipPath46">
      <path
         d="M 0,331.654 H 921.26 V 0 H 0 Z"
         transform="translate(-213.6265,-276.04761)"
         id="path46" />
    </clipPath>
    <clipPath
       clipPathUnits="userSpaceOnUse"
       id="clipPath44">
      <path
         d="M 0,331.654 H 921.26 V 0 H 0 Z"
         transform="translate(-354.94961,-221.2577)"
         id="path44" />
    </clipPath>
    <clipPath
       clipPathUnits="userSpaceOnUse"
       id="clipPath42">
      <path
         d="M 0,331.654 H 921.26 V 0 H 0 Z"
         transform="translate(-323.26811,-258.85841)"
         id="path42" />
    </clipPath>
    <clipPath
       clipPathUnits="userSpaceOnUse"
       id="clipPath40">
      <path
         d="M 0,331.654 H 921.26 V 0 H 0 Z"
         transform="translate(-292.99041,-222.86201)"
         id="path40" />
    </clipPath>
    <clipPath
       clipPathUnits="userSpaceOnUse"
       id="clipPath38">
      <path
         d="M 0,331.654 H 921.26 V 0 H 0 Z"
         transform="translate(-512.70301,-62.596602)"
         id="path38" />
    </clipPath>
    <clipPath
       clipPathUnits="userSpaceOnUse"
       id="clipPath36">
      <path
         d="M 0,331.654 H 921.26 V 0 H 0 Z"
         id="path36" />
    </clipPath>
    <clipPath
       clipPathUnits="userSpaceOnUse"
       id="clipPath34">
      <path
         d="M 0,331.654 H 921.26 V 0 H 0 Z"
         transform="translate(-457.68691,-66.091002)"
         id="path34" />
    </clipPath>
    <clipPath
       clipPathUnits="userSpaceOnUse"
       id="clipPath32">
      <path
         d="M 0,331.654 H 921.26 V 0 H 0 Z"
         transform="translate(-434.93211,-74.537502)"
         id="path32" />
    </clipPath>
    <clipPath
       clipPathUnits="userSpaceOnUse"
       id="clipPath30">
      <path
         d="M 0,331.654 H 921.26 V 0 H 0 Z"
         transform="translate(-398.02121,-79.777999)"
         id="path30" />
    </clipPath>
    <clipPath
       clipPathUnits="userSpaceOnUse"
       id="clipPath28">
      <path
         d="M 0,331.654 H 921.26 V 0 H 0 Z"
         transform="translate(-333.33631,-56.188601)"
         id="path28" />
    </clipPath>
    <clipPath
       clipPathUnits="userSpaceOnUse"
       id="clipPath26">
      <path
         d="M 0,331.654 H 921.26 V 0 H 0 Z"
         transform="translate(-318.15291,-74.537502)"
         id="path26" />
    </clipPath>
    <clipPath
       clipPathUnits="userSpaceOnUse"
       id="clipPath24">
      <path
         d="M 0,331.654 H 921.26 V 0 H 0 Z"
         transform="translate(-269.35801,-67.081804)"
         id="path24" />
    </clipPath>
    <clipPath
       clipPathUnits="userSpaceOnUse"
       id="clipPath22">
      <path
         d="M 0,331.654 H 921.26 V 0 H 0 Z"
         transform="translate(-633.33182,-157.58341)"
         id="path22" />
    </clipPath>
    <clipPath
       clipPathUnits="userSpaceOnUse"
       id="clipPath20">
      <path
         d="M 0,331.654 H 921.26 V 0 H 0 Z"
         transform="translate(-591.19271,-157.58341)"
         id="path20" />
    </clipPath>
    <clipPath
       clipPathUnits="userSpaceOnUse"
       id="clipPath18">
      <path
         d="M 0,331.654 H 921.26 V 0 H 0 Z"
         transform="translate(-549.05351,-157.58341)"
         id="path18" />
    </clipPath>
    <clipPath
       clipPathUnits="userSpaceOnUse"
       id="clipPath16">
      <path
         d="M 0,331.654 H 921.26 V 0 H 0 Z"
         id="path16" />
    </clipPath>
    <clipPath
       clipPathUnits="userSpaceOnUse"
       id="clipPath14">
      <path
         d="M 0,331.654 H 921.26 V 0 H 0 Z"
         transform="translate(-475.77181,-141.0376)"
         id="path14" />
    </clipPath>
    <clipPath
       clipPathUnits="userSpaceOnUse"
       id="clipPath12">
      <path
         d="M 0,331.654 H 921.26 V 0 H 0 Z"
         transform="translate(-469.11411,-164.3975)"
         id="path12" />
    </clipPath>
    <clipPath
       clipPathUnits="userSpaceOnUse"
       id="clipPath10">
      <path
         d="M 0,331.654 H 921.26 V 0 H 0 Z"
         transform="translate(-416.11831,-154.21501)"
         id="path10" />
    </clipPath>
    <clipPath
       clipPathUnits="userSpaceOnUse"
       id="clipPath8">
      <path
         d="M 0,331.654 H 921.26 V 0 H 0 Z"
         transform="translate(-390.37471,-133.62451)"
         id="path8" />
    </clipPath>
    <clipPath
       clipPathUnits="userSpaceOnUse"
       id="clipPath6">
      <path
         d="M 0,331.654 H 921.26 V 0 H 0 Z"
         id="path6" />
    </clipPath>
    <clipPath
       clipPathUnits="userSpaceOnUse"
       id="clipPath4">
      <path
         d="M 0,331.654 H 921.26 V 0 H 0 Z"
         transform="translate(-326.59941,-162.9742)"
         id="path4" />
    </clipPath>
    <clipPath
       clipPathUnits="userSpaceOnUse"
       id="clipPath2">
      <path
         d="M 0,331.654 H 921.26 V 0 H 0 Z"
         transform="translate(-272.71021,-142.3837)"
         id="path2" />
    </clipPath>
  </defs>
  <g
     inkscape:label="Capa 1"
     inkscape:groupmode="layer"
     id="layer1"
     transform="translate(19.314583,-121.97291)">
    <path
       id="path1"
       d="M 0,0 C -1.947,3.07 -3.07,6.664 -3.07,12.205 V 43.65 H 1.423 V 11.979 c 0,-4.566 0.823,-7.335 2.321,-9.731 2.92,-4.569 8.16,-7.488 14.15,-7.488 5.99,0 11.23,2.919 14.15,7.488 1.498,2.396 2.321,5.165 2.321,9.731 V 43.65 h 4.493 V 12.205 C 38.858,6.664 37.735,3.07 35.788,0 32.119,-5.764 25.455,-9.508 17.894,-9.508 10.333,-9.508 3.669,-5.764 0,0"
       style="fill:#969696;fill-opacity:1;fill-rule:nonzero;stroke:none"
       transform="matrix(0.35277776,0,0,-0.35277776,13.807264,169.12656)"
       clip-path="url(#clipPath2)" />
    <path
       id="path3"
       d="m 0,0 c 2.772,3.669 7.263,5.541 12.055,5.541 4.942,0 9.36,-2.022 12.129,-5.766 1.872,-2.469 2.92,-5.316 2.92,-10.93 V -29.35 h -4.268 v 17.894 c 0,4.494 -0.747,6.664 -1.945,8.386 -1.947,2.845 -5.167,4.566 -8.912,4.566 -4.94,0 -9.207,-2.619 -11.829,-7.112 V -29.35 H -4.118 V 4.792 H 0 Z"
       style="fill:#969696;fill-opacity:1;fill-rule:nonzero;stroke:none"
       transform="matrix(0.35277776,0,0,-0.35277776,32.818177,161.86269)"
       clip-path="url(#clipPath4)" />
    <path
       id="path5"
       d="m 364.172,167.766 h 4.268 v -34.141 h -4.268 z m 2.098,15.648 c 2.095,0 3.817,-1.721 3.817,-3.819 0,-2.095 -1.722,-3.742 -3.817,-3.742 -2.098,0 -3.744,1.647 -3.744,3.742 0,2.098 1.646,3.819 3.744,3.819"
       style="fill:#969696;fill-opacity:1;fill-rule:nonzero;stroke:none"
       transform="matrix(0.35277776,0,0,-0.35277776,-82.398833,219.35637)"
       clip-path="url(#clipPath6)" />
    <path
       id="path7"
       d="m 0,0 -15.874,34.141 h 4.642 L 1.346,6.887 13.925,34.141 h 4.643 L 2.77,0 Z"
       style="fill:#969696;fill-opacity:1;fill-rule:nonzero;stroke:none"
       transform="matrix(0.35277776,0,0,-0.35277776,55.316684,172.21662)"
       clip-path="url(#clipPath8)" />
    <path
       id="path9"
       d="M 0,0 H 23.285 C 22.385,5.99 17.744,10.256 11.829,10.256 5.764,10.256 1.273,5.915 0,0 m 26.58,-15.049 c -2.546,-3.221 -7.413,-6.291 -13.926,-6.291 -9.584,0 -17.147,7.188 -17.147,17.821 0,9.807 6.664,17.819 16.322,17.819 9.135,0 15.874,-7.187 15.874,-16.696 0,-0.3 0,-0.824 -0.075,-1.498 H -0.225 c 0.3,-7.263 5.017,-13.403 12.879,-13.403 4.491,0 8.235,1.799 10.929,5.092 z"
       style="fill:#969696;fill-opacity:1;fill-rule:nonzero;stroke:none"
       transform="matrix(0.35277776,0,0,-0.35277776,64.398454,164.95274)"
       clip-path="url(#clipPath10)" />
    <path
       id="path11"
       d="m 0,0 c -0.449,0.073 -1.797,0.073 -2.022,0.073 -4.642,0 -8.91,-3.143 -10.707,-7.561 v -23.285 h -4.268 V 3.368 h 4.268 v -4.493 c 1.574,2.396 5.466,5.243 10.782,5.243 0.599,0 2.097,-0.075 2.546,-0.151 z"
       style="fill:#969696;fill-opacity:1;fill-rule:nonzero;stroke:none"
       transform="matrix(0.35277776,0,0,-0.35277776,83.094196,161.36059)"
       clip-path="url(#clipPath12)" />
    <path
       id="path13"
       d="m 0,0 c 2.92,-2.471 6.514,-4.12 10.331,-4.12 4.268,0 7.862,2.396 7.862,5.99 0,8.761 -19.691,3.969 -19.691,15.648 0,6.216 5.839,9.96 11.605,9.96 4.642,0 8.461,-1.574 11.005,-3.296 l -2.245,-3.518 c -2.92,1.872 -5.018,2.769 -8.536,2.769 -3.594,0 -7.562,-1.87 -7.562,-5.839 0,-7.562 19.691,-3.519 19.691,-15.499 0,-6.363 -5.39,-10.257 -11.829,-10.257 -5.691,0 -10.257,2.097 -13.252,4.867 z"
       style="fill:#969696;fill-opacity:1;fill-rule:nonzero;stroke:none"
       transform="matrix(0.35277776,0,0,-0.35277776,85.442883,169.60144)"
       clip-path="url(#clipPath14)" />
    <path
       id="path15"
       d="m 506.906,167.766 h 4.268 v -34.141 h -4.268 z m 2.098,15.648 c 2.095,0 3.817,-1.721 3.817,-3.819 0,-2.095 -1.722,-3.742 -3.817,-3.742 -2.098,0 -3.745,1.647 -3.745,3.742 0,2.098 1.647,3.819 3.745,3.819"
       style="fill:#969696;fill-opacity:1;fill-rule:nonzero;stroke:none"
       transform="matrix(0.35277776,0,0,-0.35277776,-82.398833,219.35637)"
       clip-path="url(#clipPath16)" />
    <path
       id="path17"
       d="m 0,0 c -1.496,2.546 -5.99,6.887 -12.278,6.887 -2.847,0 -5.841,-0.972 -8.237,-2.92 -2.995,-2.469 -4.792,-6.438 -4.792,-10.854 0,-4.719 2.097,-8.912 5.391,-11.232 2.172,-1.497 4.791,-2.547 7.711,-2.547 5.017,0 9.511,2.847 12.205,7.489 z m -22.312,-21.488 c -4.491,3.145 -7.263,8.461 -7.263,14.601 0,5.689 2.471,10.706 6.365,14 2.845,2.32 6.737,3.819 10.857,3.819 C -7.636,10.932 -3.22,9.06 0,5.616 V 29.199 H 4.268 V -23.959 H 0.15 v 5.017 c -2.546,-3.445 -6.964,-5.766 -12.28,-5.766 -3.218,0 -6.812,0.824 -10.182,3.22"
       style="fill:#969696;fill-opacity:1;fill-rule:nonzero;stroke:none"
       transform="matrix(0.35277776,0,0,-0.35277776,111.29504,163.76445)"
       clip-path="url(#clipPath18)" />
    <path
       id="path19"
       d="m 0,0 c -1.496,2.546 -5.99,6.887 -12.278,6.887 -2.847,0 -5.841,-0.972 -8.237,-2.92 -2.995,-2.469 -4.792,-6.438 -4.792,-10.854 0,-4.719 2.097,-8.912 5.391,-11.232 2.172,-1.497 4.791,-2.547 7.711,-2.547 5.017,0 9.511,2.847 12.205,7.489 z m 0.15,-23.959 v 5.017 c -2.546,-3.445 -6.964,-5.766 -12.28,-5.766 -3.218,0 -6.812,0.824 -10.182,3.22 -4.491,3.145 -7.263,8.461 -7.263,14.601 0,5.689 2.471,10.706 6.365,14 2.845,2.32 6.737,3.819 10.857,3.819 4.94,0 9.433,-2.023 12.503,-5.466 v 4.717 h 4.118 v -34.142 z"
       style="fill:#969696;fill-opacity:1;fill-rule:nonzero;stroke:none"
       transform="matrix(0.35277776,0,0,-0.35277776,126.16081,163.76445)"
       clip-path="url(#clipPath20)" />
    <path
       id="path21"
       d="m 0,0 c -1.496,2.546 -5.99,6.887 -12.278,6.887 -2.847,0 -5.841,-0.972 -8.237,-2.92 -2.995,-2.469 -4.792,-6.438 -4.792,-10.854 0,-4.719 2.097,-8.912 5.391,-11.232 2.172,-1.497 4.791,-2.547 7.711,-2.547 5.017,0 9.511,2.847 12.205,7.489 z m -22.312,-21.488 c -4.491,3.145 -7.263,8.461 -7.263,14.601 0,5.689 2.471,10.706 6.365,14 2.845,2.32 6.737,3.819 10.857,3.819 C -7.636,10.932 -3.22,9.06 0,5.616 V 29.199 H 4.268 V -23.959 H 0.15 v 5.017 c -2.546,-3.445 -6.964,-5.766 -12.28,-5.766 -3.218,0 -6.812,0.824 -10.182,3.22"
       style="fill:#969696;fill-opacity:1;fill-rule:nonzero;stroke:none"
       transform="matrix(0.35277776,0,0,-0.35277776,141.02655,163.76445)"
       clip-path="url(#clipPath22)" />
    <path
       id="path23"
       d="m 0,0 c 2.331,-2.564 5.884,-4.485 9.612,-4.485 3.494,0 5.941,2.154 5.941,5.125 0,5.242 -7.571,5.884 -13.047,9.086 -3.204,1.864 -5.767,4.659 -5.767,9.262 0,7.281 6.698,11.474 13.456,11.474 4.136,0 7.979,-0.991 11.823,-3.843 l -4.077,-5.826 c -1.631,1.515 -4.368,2.681 -7.048,2.681 -2.97,0 -6.29,-1.284 -6.29,-4.429 0,-6.58 18.814,-4.542 18.814,-18.288 0,-7.224 -6.467,-12.233 -13.805,-12.233 -5.476,0 -10.544,2.272 -14.737,6.116 z"
       style="fill:#969696;fill-opacity:1;fill-rule:nonzero;stroke:none"
       transform="matrix(0.35277776,0,0,-0.35277776,12.624682,195.6914)"
       clip-path="url(#clipPath24)" />
    <path
       id="path25"
       d="m 0,0 c -1.574,2.095 -4.077,3.494 -6.991,3.494 -4.426,0 -7.281,-3.671 -7.281,-7.748 0,-4.426 3.204,-7.687 7.456,-7.687 2.855,0 5.36,1.397 6.816,3.494 z M 7.571,-18.349 H 0.29 v 2.272 c -2.329,-1.981 -5.009,-2.855 -7.863,-2.855 -4.193,0 -8.155,1.864 -10.658,4.778 -2.213,2.562 -3.612,6.057 -3.612,9.9 0,8.331 6.174,14.737 13.863,14.737 3.204,0 6.057,-1.048 8.27,-2.853 V 9.9 h 7.281 z"
       style="fill:#969696;fill-opacity:1;fill-rule:nonzero;stroke:none"
       transform="matrix(0.35277776,0,0,-0.35277776,29.83844,193.0612)"
       clip-path="url(#clipPath26)" />
    <path
       id="path27"
       d="m 0,0 v 28.249 h 7.281 v -2.27 c 2.154,1.746 4.834,2.853 7.98,2.853 3.902,0 7.455,-1.746 9.784,-4.542 1.864,-2.213 2.914,-5.068 2.914,-9.902 V 0 h -7.574 v 14.97 c 0,2.796 -0.639,4.252 -1.689,5.3 -0.989,0.99 -2.503,1.573 -4.252,1.573 -3.204,0 -5.825,-2.038 -6.873,-3.494 L 7.571,0 Z"
       style="fill:#969696;fill-opacity:1;fill-rule:nonzero;stroke:none"
       transform="matrix(0.35277776,0,0,-0.35277776,35.194805,199.53428)"
       clip-path="url(#clipPath28)" />
    <path
       id="path29"
       d="M 0,0 C 2.678,0 4.018,0.642 4.95,1.632 5.823,2.564 6.29,3.728 6.29,5.068 6.29,6.408 5.823,7.63 4.95,8.564 4.018,9.553 2.678,10.195 0,10.195 H -7.106 V 0 Z m -7.106,-6.989 v -16.6 H -14.97 V 17.183 H 0.349 c 5.243,0 8.329,-1.281 10.601,-3.669 2.039,-2.097 3.204,-5.242 3.204,-8.446 0,-3.204 -1.165,-6.349 -3.204,-8.445 C 8.737,-5.707 5.592,-6.989 0.349,-6.989 Z"
       style="fill:#969696;fill-opacity:1;fill-rule:nonzero;stroke:none"
       transform="matrix(0.35277776,0,0,-0.35277776,58.014199,191.21247)"
       clip-path="url(#clipPath30)" />
    <path
       id="path31"
       d="m 0,0 c -1.574,2.095 -4.077,3.494 -6.991,3.494 -4.426,0 -7.281,-3.671 -7.281,-7.748 0,-4.426 3.204,-7.687 7.456,-7.687 2.855,0 5.36,1.397 6.816,3.494 z M 7.571,-18.349 H 0.29 v 2.272 c -2.329,-1.981 -5.009,-2.855 -7.861,-2.855 -4.195,0 -8.157,1.864 -10.66,4.778 -2.213,2.562 -3.612,6.057 -3.612,9.9 0,8.331 6.174,14.737 13.863,14.737 3.202,0 6.057,-1.048 8.27,-2.853 V 9.9 h 7.281 z"
       style="fill:#969696;fill-opacity:1;fill-rule:nonzero;stroke:none"
       transform="matrix(0.35277776,0,0,-0.35277776,71.035546,193.0612)"
       clip-path="url(#clipPath32)" />
    <path
       id="path33"
       d="m 0,0 c 1.456,-2.097 3.961,-3.494 6.814,-3.494 4.254,0 7.456,3.261 7.456,7.687 0,4.077 -2.853,7.748 -7.281,7.748 C 4.077,11.941 1.572,10.542 0,8.447 Z M -7.571,-9.902 V 31.453 H 0 V 16.308 c 2.213,1.748 4.893,2.622 7.98,2.622 7.689,0 13.863,-6.406 13.863,-14.737 0,-3.844 -1.399,-7.338 -3.612,-9.9 -2.503,-2.914 -6.465,-4.778 -10.66,-4.778 -2.852,0 -5.532,0.873 -7.863,2.855 v -2.272 z"
       style="fill:#969696;fill-opacity:1;fill-rule:nonzero;stroke:none"
       transform="matrix(0.35277776,0,0,-0.35277776,79.062932,196.04093)"
       clip-path="url(#clipPath34)" />
    <path
       id="path35"
       d="m 492.385,56.189 h -7.571 v 41.355 h 7.571 z"
       style="fill:#969696;fill-opacity:1;fill-rule:nonzero;stroke:none"
       transform="matrix(0.35277776,0,0,-0.35277776,-82.398833,219.35637)"
       clip-path="url(#clipPath36)" />
    <path
       id="path37"
       d="m 0,0 c 4.428,0 7.456,3.435 7.456,7.687 0,4.254 -3.028,7.748 -7.456,7.748 -4.426,0 -7.456,-3.494 -7.456,-7.748 C -7.456,3.435 -4.426,0 0,0 m 0,22.424 c 8.564,0 15.029,-6.581 15.029,-14.737 0,-8.154 -6.465,-14.678 -15.029,-14.678 -8.562,0 -15.027,6.524 -15.027,14.678 0,8.156 6.465,14.737 15.027,14.737"
       style="fill:#969696;fill-opacity:1;fill-rule:nonzero;stroke:none"
       transform="matrix(0.35277776,0,0,-0.35277776,98.47139,197.27368)"
       clip-path="url(#clipPath38)" />
    <path
       id="path39"
       d="m 0,0 c -10.337,0 -18.296,7.963 -18.296,18.38 0,10.187 7.655,18.383 17.839,18.383 5.281,0 9.797,-2.299 13.011,-5.513 l 0.016,0.012 v 11.722 c -3.779,1.884 -8.158,2.969 -12.953,2.969 -16.691,0 -28.251,-12.179 -28.251,-27.573 0,-15.394 11.714,-27.57 28.405,-27.57 4.749,0 9.07,0.99 12.799,2.703 V 4.666 C 9.485,1.95 5.298,0 0,0"
       style="fill:#969696;fill-opacity:1;fill-rule:nonzero;stroke:none"
       transform="matrix(0.35277776,0,0,-0.35277776,20.961669,140.73561)"
       clip-path="url(#clipPath40)" />
    <path
       id="path41"
       d="m 0,0 v -13.02 h 16.467 v -9.189 H 0 v -13.024 h 21.153 v -9.19 H -10.342 V 9.19 H 21.153 V 0 Z"
       style="fill:#969696;fill-opacity:1;fill-rule:nonzero;stroke:none"
       transform="matrix(0.35277776,0,0,-0.35277776,31.642967,128.03688)"
       clip-path="url(#clipPath42)" />
    <path
       id="path43"
       d="m 0,0 c -2.853,3.539 -4.229,8.067 -4.229,15.835 v 30.958 h 9.344 v -32.43 c 0,-4.724 0.985,-7.281 2.657,-9.248 2.067,-2.458 5.41,-4.034 8.948,-4.034 5.706,0 10.33,3.443 12.987,6.591 V 46.793 H 39.05 V -6.786 h -9.048 v 4.229 C 27.935,-4.524 22.821,-7.772 16.425,-7.772 9.839,-7.772 3.838,-4.819 0,0"
       style="fill:#969696;fill-opacity:1;fill-rule:nonzero;stroke:none"
       transform="matrix(0.35277776,0,0,-0.35277776,42.819496,141.30157)"
       clip-path="url(#clipPath44)" />
    <path
       id="path45"
       d="m 0,0 c -19.19,0 -34.805,-15.614 -34.805,-34.805 0,-19.19 15.615,-34.805 34.805,-34.805 19.19,0 34.801,15.615 34.801,34.805 C 34.801,-15.614 19.19,0 0,0 m -29.844,-41.982 h 22.667 v 14.358 h -22.667 c 2.686,11.17 11.493,19.977 22.667,22.663 V -27.624 H 7.173 V -4.961 C 18.346,-7.647 27.154,-16.454 29.84,-27.624 H 7.173 V -41.982 H 29.84 C 27.154,-53.151 18.346,-61.963 7.173,-64.645 v 22.663 h -14.35 v -22.663 c -11.174,2.682 -19.981,11.494 -22.667,22.663"
       style="fill:#969696;fill-opacity:1;fill-rule:nonzero;stroke:none"
       transform="matrix(0.35277776,0,0,-0.35277776,-7.0361529,121.97291)"
       clip-path="url(#clipPath46)" />
  </g>
</svg>
