<?xml version="1.0" encoding="UTF-8" standalone="no"?>
<!-- Created with Inkscape (http://www.inkscape.org/) -->

<svg
   version="1.1"
   id="svg1"
   width="151.18134"
   height="151.18134"
   viewBox="0 0 151.18134 151.18134"
   sodipodi:docname="sello-usp.svg"
   inkscape:version="1.4.2 (ebf0e940d0, 2025-05-08)"
   xmlns:inkscape="http://www.inkscape.org/namespaces/inkscape"
   xmlns:sodipodi="http://sodipodi.sourceforge.net/DTD/sodipodi-0.dtd"
   xmlns="http://www.w3.org/2000/svg"
   xmlns:svg="http://www.w3.org/2000/svg">
  <defs
     id="defs1">
    <clipPath
       clipPathUnits="userSpaceOnUse"
       id="clipPath2">
      <path
         d="M 0,113.386 H 113.386 V 0 H 0 Z"
         transform="translate(-29.7037,-50.254001)"
         id="path2" />
    </clipPath>
    <clipPath
       clipPathUnits="userSpaceOnUse"
       id="clipPath4">
      <path
         d="M 0,113.386 H 113.386 V 0 H 0 Z"
         transform="translate(-107.42331,-56.692901)"
         id="path4" />
    </clipPath>
    <clipPath
       clipPathUnits="userSpaceOnUse"
       id="clipPath6">
      <path
         d="M 0,113.386 H 113.386 V 0 H 0 Z"
         transform="translate(-18.8353,-56.604302)"
         id="path6" />
    </clipPath>
    <clipPath
       clipPathUnits="userSpaceOnUse"
       id="clipPath8">
      <path
         d="M 0,113.386 H 113.386 V 0 H 0 Z"
         transform="translate(-15.686901,-66.993002)"
         id="path8" />
    </clipPath>
    <clipPath
       clipPathUnits="userSpaceOnUse"
       id="clipPath10">
      <path
         d="M 0,113.386 H 113.386 V 0 H 0 Z"
         transform="translate(-17.3109,-73.544702)"
         id="path10" />
    </clipPath>
    <clipPath
       clipPathUnits="userSpaceOnUse"
       id="clipPath12">
      <path
         d="M 0,113.386 H 113.386 V 0 H 0 Z"
         transform="translate(-18.2362,-75.798602)"
         id="path12" />
    </clipPath>
    <clipPath
       clipPathUnits="userSpaceOnUse"
       id="clipPath14">
      <path
         d="M 0,113.386 H 113.386 V 0 H 0 Z"
         transform="translate(-24.437901,-81.285502)"
         id="path14" />
    </clipPath>
    <clipPath
       clipPathUnits="userSpaceOnUse"
       id="clipPath16">
      <path
         d="M 0,113.386 H 113.386 V 0 H 0 Z"
         transform="translate(-30.177101,-88.928502)"
         id="path16" />
    </clipPath>
    <clipPath
       clipPathUnits="userSpaceOnUse"
       id="clipPath18">
      <path
         d="M 0,113.386 H 113.386 V 0 H 0 Z"
         transform="translate(-33.267501,-87.018402)"
         id="path18" />
    </clipPath>
    <clipPath
       clipPathUnits="userSpaceOnUse"
       id="clipPath20">
      <path
         d="M 0,113.386 H 113.386 V 0 H 0 Z"
         transform="translate(-35.571701,-93.880702)"
         id="path20" />
    </clipPath>
    <clipPath
       clipPathUnits="userSpaceOnUse"
       id="clipPath22">
      <path
         d="M 0,113.386 H 113.386 V 0 H 0 Z"
         transform="translate(-43.430501,-95.332302)"
         id="path22" />
    </clipPath>
    <clipPath
       clipPathUnits="userSpaceOnUse"
       id="clipPath24">
      <path
         d="M 0,113.386 H 113.386 V 0 H 0 Z"
         transform="translate(-50.985202,-97.102803)"
         id="path24" />
    </clipPath>
    <clipPath
       clipPathUnits="userSpaceOnUse"
       id="clipPath26">
      <path
         d="M 0,113.386 H 113.386 V 0 H 0 Z"
         transform="translate(-58.734701,-97.402602)"
         id="path26" />
    </clipPath>
    <clipPath
       clipPathUnits="userSpaceOnUse"
       id="clipPath28">
      <path
         d="M 0,113.386 H 113.386 V 0 H 0 Z"
         transform="translate(-64.551602,-94.726402)"
         id="path28" />
    </clipPath>
    <clipPath
       clipPathUnits="userSpaceOnUse"
       id="clipPath30">
      <path
         d="M 0,113.386 H 113.386 V 0 H 0 Z"
         transform="translate(-75.396399,-92.811802)"
         id="path30" />
    </clipPath>
    <clipPath
       clipPathUnits="userSpaceOnUse"
       id="clipPath32">
      <path
         d="M 0,113.386 H 113.386 V 0 H 0 Z"
         transform="translate(-80.073602,-91.560903)"
         id="path32" />
    </clipPath>
    <clipPath
       clipPathUnits="userSpaceOnUse"
       id="clipPath34">
      <path
         d="M 0,113.386 H 113.386 V 0 H 0 Z"
         transform="translate(-89.695705,-82.071602)"
         id="path34" />
    </clipPath>
    <clipPath
       clipPathUnits="userSpaceOnUse"
       id="clipPath36">
      <path
         d="M 0,113.386 H 113.386 V 0 H 0 Z"
         transform="translate(-93.0697,-74.630202)"
         id="path36" />
    </clipPath>
    <clipPath
       clipPathUnits="userSpaceOnUse"
       id="clipPath38">
      <path
         d="M 0,113.386 H 113.386 V 0 H 0 Z"
         transform="translate(-92.644405,-69.748802)"
         id="path38" />
    </clipPath>
    <clipPath
       clipPathUnits="userSpaceOnUse"
       id="clipPath40">
      <path
         d="M 0,113.386 H 113.386 V 0 H 0 Z"
         transform="translate(-101.4574,-65.098002)"
         id="path40" />
    </clipPath>
    <clipPath
       clipPathUnits="userSpaceOnUse"
       id="clipPath42">
      <path
         d="M 0,113.386 H 113.386 V 0 H 0 Z"
         transform="translate(-93.959402,-58.319201)"
         id="path42" />
    </clipPath>
    <clipPath
       clipPathUnits="userSpaceOnUse"
       id="clipPath44">
      <path
         d="M 0,113.386 H 113.386 V 0 H 0 Z"
         transform="translate(-49.813701,-13.8148)"
         id="path44" />
    </clipPath>
    <clipPath
       clipPathUnits="userSpaceOnUse"
       id="clipPath46">
      <path
         d="M 0,113.386 H 113.386 V 0 H 0 Z"
         transform="translate(-55.391801,-20.446503)"
         id="path46" />
    </clipPath>
    <clipPath
       clipPathUnits="userSpaceOnUse"
       id="clipPath48">
      <path
         d="M 0,113.386 H 113.386 V 0 H 0 Z"
         transform="translate(-61.228402,-13.519203)"
         id="path48" />
    </clipPath>
  </defs>
  <sodipodi:namedview
     id="namedview1"
     pagecolor="#ffffff"
     bordercolor="#000000"
     borderopacity="0.25"
     inkscape:showpageshadow="2"
     inkscape:pageopacity="0.0"
     inkscape:pagecheckerboard="0"
     inkscape:deskcolor="#d1d1d1"
     inkscape:zoom="5.8208245"
     inkscape:cx="75.676564"
     inkscape:cy="75.676564"
     inkscape:window-width="3440"
     inkscape:window-height="1440"
     inkscape:window-x="0"
     inkscape:window-y="0"
     inkscape:window-maximized="0"
     inkscape:current-layer="layer-MC0">
    <inkscape:page
       x="0"
       y="0"
       inkscape:label="1"
       id="page1"
       width="151.18134"
       height="151.18134"
       margin="6.9096532 7.1933331 6.9093332 6.6267467"
       bleed="0" />
  </sodipodi:namedview>
  <g
     id="layer-MC0"
     inkscape:groupmode="layer"
     inkscape:label="Capa 1">
    <path
       id="path1"
       d="M 0,0 H 20.339 V 12.88 H 0 C 2.411,22.904 10.314,30.807 20.339,33.218 V 12.88 H 33.215 V 33.218 C 43.239,30.807 51.143,22.904 53.554,12.88 H 33.215 V 0 H 53.554 C 51.143,-10.024 43.239,-17.927 33.215,-20.337 V 0 H 20.339 V -20.337 C 10.315,-17.927 2.411,-10.024 0,0 m 26.779,37.668 c -17.22,0 -31.229,-14.01 -31.229,-31.23 0,-17.219 14.009,-31.227 31.229,-31.227 17.218,0 31.225,14.008 31.225,31.227 0,17.22 -14.007,31.23 -31.225,31.23"
       style="fill:#0033a1;fill-opacity:1;fill-rule:nonzero;stroke:none"
       transform="matrix(1.3333333,0,0,-1.3333333,39.604933,84.176)"
       clip-path="url(#clipPath2)" />
    <path
       id="path3"
       d="m 0,0 c 0,28.135 -22.808,50.943 -50.943,50.943 -28.134,0 -50.942,-22.808 -50.942,-50.943 0,-28.135 22.808,-50.943 50.942,-50.943 C -22.808,-50.943 0,-28.135 0,0 Z"
       style="fill:none;stroke:#0033a1;stroke-width:1.136;stroke-linecap:butt;stroke-linejoin:miter;stroke-miterlimit:10;stroke-dasharray:none;stroke-opacity:1"
       transform="matrix(1.3333333,0,0,-1.3333333,143.23107,75.5908)"
       clip-path="url(#clipPath4)" />
    <path
       id="path5"
       d="m 0,0 c -0.679,-0.541 -1.551,-0.845 -2.774,-0.759 l -5.336,0.375 0.091,1.301 5.401,-0.38 c 0.86,-0.06 1.408,0.11 1.837,0.447 0.54,0.419 0.886,1.075 0.941,1.843 0.054,0.768 -0.198,1.466 -0.674,1.957 -0.378,0.393 -0.897,0.639 -1.756,0.699 L -7.671,5.863 -7.58,7.165 -2.243,6.79 C -1.02,6.704 -0.199,6.279 0.397,5.649 1.091,4.907 1.475,3.859 1.396,2.74 1.317,1.621 0.791,0.638 0,0"
       style="fill:#0033a1;fill-opacity:1;fill-rule:nonzero;stroke:none"
       transform="matrix(1.3333333,0,0,-1.3333333,25.113733,75.708933)"
       clip-path="url(#clipPath6)" />
    <path
       id="path7"
       d="M 0,0 C -0.208,0.401 -0.42,1.117 -0.17,1.969 0.083,2.833 0.712,3.492 1.498,3.806 2.084,4.042 2.745,4.065 3.759,3.768 L 6.641,2.922 6.292,1.732 3.348,2.596 C 2.596,2.816 2.205,2.782 1.879,2.646 1.447,2.474 1.089,2.089 0.946,1.6 0.718,0.823 0.966,0.138 1.289,-0.337 l 4.046,-1.188 -0.349,-1.19 -5.888,1.728 0.339,1.153 z"
       style="fill:#0033a1;fill-opacity:1;fill-rule:nonzero;stroke:none"
       transform="matrix(1.3333333,0,0,-1.3333333,20.915867,61.857333)"
       clip-path="url(#clipPath8)" />
    <path
       id="path9"
       d="M 0,0 0.506,1.132 6.107,-1.371 5.601,-2.502 Z m -2.491,1.785 c 0.187,0.417 0.67,0.602 1.087,0.415 0.417,-0.186 0.59,-0.663 0.403,-1.08 C -1.187,0.702 -1.653,0.524 -2.07,0.711 -2.487,0.897 -2.677,1.368 -2.491,1.785"
       style="fill:#0033a1;fill-opacity:1;fill-rule:nonzero;stroke:none"
       transform="matrix(1.3333333,0,0,-1.3333333,23.0812,53.121733)"
       clip-path="url(#clipPath10)" />
    <path
       id="path11"
       d="M 0,0 0.652,1.101 5.17,0.533 2.501,4.223 3.154,5.323 7.075,-0.095 6.636,-0.836 Z"
       style="fill:#0033a1;fill-opacity:1;fill-rule:nonzero;stroke:none"
       transform="matrix(1.3333333,0,0,-1.3333333,24.314933,50.116533)"
       clip-path="url(#clipPath12)" />
    <path
       id="path13"
       d="M 0,0 2.141,2.566 C 1.422,2.928 0.55,2.738 0.082,2.176 -0.429,1.564 -0.478,0.67 0,0 M 0.735,-0.749 C 1.569,-1.36 2.744,-1.235 3.43,-0.413 4.015,0.289 3.992,0.954 3.917,1.476 l 1.11,0.128 C 5.186,0.877 5.056,-0.154 4.253,-1.117 3.108,-2.49 1.179,-2.683 -0.234,-1.504 -1.648,-0.325 -1.888,1.507 -0.776,2.84 0.32,4.153 2.177,4.219 3.57,3.057 3.61,3.024 3.681,2.965 3.762,2.88 Z"
       style="fill:#0033a1;fill-opacity:1;fill-rule:nonzero;stroke:none"
       transform="matrix(1.3333333,0,0,-1.3333333,32.583867,42.800667)"
       clip-path="url(#clipPath14)" />
    <path
       id="path15"
       d="M 0,0 C -0.133,-0.067 -0.249,-0.154 -0.394,-0.285 -0.87,-0.713 -1.077,-1.498 -0.936,-2.162 l 2.719,-3.018 -0.922,-0.831 -4.109,4.561 0.893,0.805 0.472,-0.524 c -0.056,0.511 0.139,1.251 0.809,1.854 0.097,0.087 0.261,0.217 0.385,0.294 z"
       style="fill:#0033a1;fill-opacity:1;fill-rule:nonzero;stroke:none"
       transform="matrix(1.3333333,0,0,-1.3333333,40.236133,32.61)"
       clip-path="url(#clipPath16)" />
    <path
       id="path17"
       d="M 0,0 C 0.725,-0.036 1.373,0.128 1.876,0.478 2.315,0.784 2.591,1.325 2.315,1.721 1.913,2.299 1.055,1.75 0.145,1.483 -0.607,1.262 -1.421,1.268 -1.913,1.975 -2.665,3.057 -2.043,4.22 -1.144,4.845 -0.405,5.359 0.295,5.496 0.915,5.45 L 0.896,4.356 C 0.421,4.376 -0.054,4.284 -0.461,4.001 -0.954,3.658 -1.208,3.132 -0.933,2.736 -0.694,2.393 -0.216,2.551 0.377,2.772 1.311,3.12 2.596,3.489 3.318,2.45 3.98,1.496 3.501,0.289 2.516,-0.396 1.712,-0.955 0.866,-1.177 -0.003,-1.114 Z"
       style="fill:#0033a1;fill-opacity:1;fill-rule:nonzero;stroke:none"
       transform="matrix(1.3333333,0,0,-1.3333333,44.356667,35.1568)"
       clip-path="url(#clipPath18)" />
    <path
       id="path19"
       d="M 0,0 1.088,0.593 4.021,-4.793 2.933,-5.386 Z M -0.897,2.929 C -0.496,3.147 0,3.001 0.218,2.6 0.437,2.199 0.284,1.715 -0.117,1.497 -0.518,1.278 -0.996,1.419 -1.214,1.82 -1.433,2.221 -1.298,2.71 -0.897,2.929"
       style="fill:#0033a1;fill-opacity:1;fill-rule:nonzero;stroke:none"
       transform="matrix(1.3333333,0,0,-1.3333333,47.428933,26.007067)"
       clip-path="url(#clipPath20)" />
    <path
       id="path21"
       d="m 0,0 c -0.531,0.328 -1.251,0.458 -1.946,0.191 -1.11,-0.425 -1.501,-1.595 -1.118,-2.595 0.393,-1.024 1.517,-1.586 2.626,-1.161 0.585,0.224 1.07,0.746 1.26,1.419 z M 1.344,-3.4 C 1.04,-3.992 0.506,-4.461 -0.176,-4.723 -0.688,-4.919 -1.281,-4.978 -1.76,-4.896 c -1.061,0.181 -2.023,0.903 -2.462,2.049 -0.439,1.146 -0.198,2.343 0.472,3.186 0.301,0.381 0.725,0.697 1.261,0.903 0.622,0.238 1.319,0.281 1.994,0.05 l -1.312,3.426 1.158,0.444 3.316,-8.657 -1.122,-0.429 z"
       style="fill:#0033a1;fill-opacity:1;fill-rule:nonzero;stroke:none"
       transform="matrix(1.3333333,0,0,-1.3333333,57.907333,24.0716)"
       clip-path="url(#clipPath22)" />
    <path
       id="path23"
       d="m 0,0 c -0.458,0.423 -1.142,0.688 -1.875,0.559 -1.17,-0.205 -1.777,-1.28 -1.592,-2.335 0.19,-1.08 1.186,-1.847 2.357,-1.641 0.617,0.108 1.193,0.527 1.507,1.153 z m 0.671,-3.595 c -0.412,-0.523 -1.025,-0.883 -1.745,-1.009 -0.541,-0.095 -1.134,-0.04 -1.588,0.132 -1.008,0.38 -1.815,1.273 -2.027,2.482 -0.212,1.209 0.252,2.338 1.071,3.038 0.368,0.317 0.845,0.547 1.411,0.646 0.682,0.12 1.374,0.029 2.011,-0.35 L -0.293,1.897 0.89,2.105 1.952,-3.94 0.768,-4.148 Z"
       style="fill:#0033a1;fill-opacity:1;fill-rule:nonzero;stroke:none"
       transform="matrix(1.3333333,0,0,-1.3333333,67.980267,21.710933)"
       clip-path="url(#clipPath24)" />
    <path
       id="path25"
       d="m 0,0 c -0.37,0.502 -0.99,0.891 -1.734,0.903 -1.187,0.019 -1.986,-0.92 -2.003,-1.99 -0.018,-1.096 0.815,-2.036 2.002,-2.056 0.626,-0.01 1.271,0.293 1.697,0.847 z m -0.021,-3.653 c -0.503,-0.436 -1.172,-0.673 -1.903,-0.661 -0.548,0.009 -1.119,0.175 -1.533,0.43 -0.917,0.563 -1.54,1.591 -1.52,2.817 0.02,1.227 0.69,2.247 1.625,2.779 0.421,0.241 0.933,0.376 1.507,0.367 0.665,-0.011 1.327,-0.23 1.867,-0.696 l 0.061,3.666 1.239,-0.02 -0.152,-9.263 -1.2,0.02 z"
       style="fill:#0033a1;fill-opacity:1;fill-rule:nonzero;stroke:none"
       transform="matrix(1.3333333,0,0,-1.3333333,78.312933,21.3112)"
       clip-path="url(#clipPath26)" />
    <path
       id="path27"
       d="M 0,0 C 0.346,-0.77 0.94,-1.473 1.848,-1.719 2.667,-1.941 3.529,-1.606 3.745,-0.812 4.11,0.536 2.286,1.193 1.322,2.28 0.805,2.867 0.477,3.605 0.727,4.525 1.075,5.811 2.497,6.562 4.035,6.145 5.156,5.841 5.804,5.137 6.165,4.62 L 5.171,3.902 C 4.802,4.435 4.315,4.784 3.76,4.934 3.029,5.132 2.186,4.915 1.977,4.146 1.673,3.024 3.486,2.275 4.415,1.211 4.901,0.66 5.289,-0.108 5.015,-1.116 4.595,-2.667 3.124,-3.35 1.586,-2.933 c -1.21,0.328 -2.163,1.155 -2.688,2.312 z"
       style="fill:#0033a1;fill-opacity:1;fill-rule:nonzero;stroke:none"
       transform="matrix(1.3333333,0,0,-1.3333333,86.0688,24.879467)"
       clip-path="url(#clipPath28)" />
    <path
       id="path29"
       d="M 0,0 C -0.128,0.61 -0.531,1.222 -1.203,1.542 -2.274,2.053 -3.391,1.53 -3.852,0.563 c -0.471,-0.989 -0.104,-2.19 0.968,-2.701 0.565,-0.27 1.277,-0.262 1.896,0.065 z m -1.537,-3.315 c -0.639,-0.187 -1.346,-0.125 -2.006,0.19 -0.495,0.235 -0.945,0.624 -1.216,1.027 -0.6,0.894 -0.74,2.088 -0.212,3.195 0.528,1.108 1.561,1.757 2.633,1.853 0.484,0.045 1.005,-0.045 1.523,-0.292 C -0.19,2.36 0.32,1.885 0.619,1.208 l 0.242,0.507 1.083,-0.517 -2.639,-5.536 -1.084,0.516 z"
       style="fill:#0033a1;fill-opacity:1;fill-rule:nonzero;stroke:none"
       transform="matrix(1.3333333,0,0,-1.3333333,100.52853,27.432267)"
       clip-path="url(#clipPath30)" />
    <path
       id="path31"
       d="m 0,0 c 0.449,0.058 1.193,0.011 1.907,-0.516 0.724,-0.535 1.127,-1.351 1.152,-2.196 0.02,-0.632 -0.184,-1.26 -0.812,-2.11 L 0.464,-7.237 -0.533,-6.5 1.289,-4.034 c 0.464,0.63 0.566,1.01 0.55,1.362 -0.014,0.464 -0.252,0.932 -0.661,1.235 -0.651,0.48 -1.38,0.482 -1.937,0.343 l -2.504,-3.391 -0.997,0.736 3.643,4.935 0.966,-0.714 z"
       style="fill:#0033a1;fill-opacity:1;fill-rule:nonzero;stroke:none"
       transform="matrix(1.3333333,0,0,-1.3333333,106.7648,29.100133)"
       clip-path="url(#clipPath32)" />
    <path
       id="path33"
       d="M 0,0 C 0.388,-0.492 0.722,-0.662 1.062,-0.693 1.384,-0.722 1.719,-0.64 1.996,-0.422 2.272,-0.204 2.43,0.104 2.477,0.423 2.526,0.762 2.439,1.125 2.051,1.617 L 0.757,3.258 -1.294,1.641 Z M -2.268,0.872 -5.447,-1.635 -6.255,-0.609 0.922,5.052 3.065,2.334 C 3.615,1.637 3.797,1.048 3.774,0.465 3.745,-0.256 3.42,-0.962 2.805,-1.447 2.189,-1.933 1.427,-2.084 0.719,-1.945 0.146,-1.831 -0.384,-1.517 -0.934,-0.82 Z"
       style="fill:#0033a1;fill-opacity:1;fill-rule:nonzero;stroke:none"
       transform="matrix(1.3333333,0,0,-1.3333333,119.59427,41.752533)"
       clip-path="url(#clipPath34)" />
    <path
       id="path35"
       d="M 0,0 C 0.257,0.569 0.292,1.3 -0.061,1.955 -0.624,3 -1.834,3.238 -2.777,2.729 -3.742,2.209 -4.155,1.022 -3.591,-0.023 c 0.297,-0.552 0.876,-0.966 1.569,-1.067 z m -3.199,-1.769 c -0.626,0.226 -1.16,0.694 -1.507,1.338 -0.26,0.482 -0.395,1.062 -0.375,1.548 0.043,1.075 0.636,2.122 1.716,2.704 1.08,0.582 2.297,0.497 3.219,-0.058 C 0.271,3.513 0.639,3.133 0.912,2.627 1.24,2.019 1.372,1.333 1.213,0.61 l 0.495,0.266 0.569,-1.057 -5.4,-2.911 -0.57,1.057 z"
       style="fill:#0033a1;fill-opacity:1;fill-rule:nonzero;stroke:none"
       transform="matrix(1.3333333,0,0,-1.3333333,124.09293,51.6744)"
       clip-path="url(#clipPath36)" />
    <path
       id="path37"
       d="M 0,0 C -0.411,-0.565 -0.519,-1.269 -0.333,-1.867 0.022,-3 1.159,-3.533 2.205,-3.206 c 1.021,0.319 1.696,1.35 1.342,2.483 -0.222,0.71 -0.77,1.195 -1.356,1.408 z M -1.842,-0.534 -2.2,0.611 6.64,3.374 7.01,2.191 3.511,1.098 C 4.11,0.711 4.508,0.138 4.707,-0.497 4.877,-1.045 4.893,-1.573 4.78,-2.046 4.534,-3.093 3.745,-4.023 2.574,-4.389 c -1.17,-0.365 -2.332,-0.059 -3.131,0.661 -0.361,0.325 -0.682,0.826 -0.845,1.349 -0.218,0.697 -0.18,1.406 0.095,2.012 z"
       style="fill:#0033a1;fill-opacity:1;fill-rule:nonzero;stroke:none"
       transform="matrix(1.3333333,0,0,-1.3333333,123.52587,58.182933)"
       clip-path="url(#clipPath38)" />
    <path
       id="path39"
       d="m 0,0 0.208,-1.222 -9.132,-1.56 -0.209,1.222 z"
       style="fill:#0033a1;fill-opacity:1;fill-rule:nonzero;stroke:none"
       transform="matrix(1.3333333,0,0,-1.3333333,135.27653,64.384)"
       clip-path="url(#clipPath40)" />
    <path
       id="path41"
       d="M 0,0 C 0.047,-1.135 0.979,-1.893 2.102,-1.847 3.224,-1.801 4.091,-0.969 4.044,0.166 3.998,1.301 3.065,2.06 1.943,2.014 0.821,1.968 -0.046,1.135 0,0 M 5.219,0.214 C 5.293,-1.6 3.979,-3.012 2.152,-3.087 0.326,-3.162 -1.1,-1.861 -1.174,-0.048 -1.248,1.766 0.066,3.179 1.893,3.253 3.719,3.328 5.145,2.027 5.219,0.214"
       style="fill:#0033a1;fill-opacity:1;fill-rule:nonzero;stroke:none"
       transform="matrix(1.3333333,0,0,-1.3333333,125.2792,73.4224)"
       clip-path="url(#clipPath42)" />
    <path
       id="path43"
       d="m 0,0 c -1.904,0 -3.371,1.467 -3.371,3.386 0,1.877 1.411,3.387 3.286,3.387 0.974,0 1.806,-0.423 2.398,-1.016 L 2.316,5.76 V 7.919 C 1.62,8.266 0.813,8.466 -0.071,8.466 c -3.074,0 -5.204,-2.243 -5.204,-5.08 0,-2.836 2.158,-5.079 5.233,-5.079 0.875,0 1.67,0.183 2.358,0.498 V 0.86 C 1.748,0.359 0.976,0 0,0"
       style="fill:#0033a1;fill-opacity:1;fill-rule:nonzero;stroke:none"
       transform="matrix(1.3333333,0,0,-1.3333333,66.418267,132.7616)"
       clip-path="url(#clipPath44)" />
    <path
       id="path45"
       d="M 0,0 V -2.398 H 3.034 V -4.092 H 0 V -6.491 H 3.897 V -8.184 H -1.905 V 1.693 H 3.897 V 0 Z"
       style="fill:#0033a1;fill-opacity:1;fill-rule:nonzero;stroke:none"
       transform="matrix(1.3333333,0,0,-1.3333333,73.855733,123.91933)"
       clip-path="url(#clipPath46)" />
    <path
       id="path47"
       d="M 0,0 C -0.526,0.652 -0.779,1.486 -0.779,2.918 V 8.62 H 0.942 V 2.646 c 0,-0.87 0.182,-1.341 0.49,-1.704 0.38,-0.453 0.996,-0.743 1.649,-0.743 1.051,0 1.903,0.635 2.392,1.214 V 8.62 H 7.194 V -1.25 H 5.527 v 0.779 C 5.147,-0.834 4.204,-1.432 3.026,-1.432 1.812,-1.432 0.707,-0.888 0,0"
       style="fill:#0033a1;fill-opacity:1;fill-rule:nonzero;stroke:none"
       transform="matrix(1.3333333,0,0,-1.3333333,81.637867,133.15573)"
       clip-path="url(#clipPath48)" />
  </g>
</svg>
